<svg width="64" height="64" viewBox="0 0 64 64" fill="none" xmlns="http://www.w3.org/2000/svg">
  <polygon points="32,2 56,15 56,43 32,56 8,43 8,15" fill="none" stroke="#FF6644" stroke-width="1.1" opacity="0.45"/>
  <polygon points="32,4 54,16 54,42 32,54 10,42 10,16" fill="#FF6644"/>
  <polygon points="32,7 51,18 51,40 32,52 13,40 13,18" fill="#120704"/>
  <polygon points="32,14 46,22 46,40 32,48 18,40 18,22" fill="#5A1005"/>
  <polygon points="32,20 42,26 42,40 32,45 22,40 22,26" fill="#A82010"/>
  <polygon points="32,26 38,29 38,40 32,43 26,40 26,29" fill="#E8321A"/>
  <polygon points="32,29 45,40 40,43 32,47 24,43 19,40" fill="#FF6644" opacity="0.92"/>
  <polygon points="32,33 41,40 38,42 32,45 26,42 23,40" fill="#FFD0C0" opacity="0.76"/>
  <polygon points="32,36 37,40 36,41 32,43 28,41 27,40" fill="#FFF0EB" opacity="0.60"/>
</svg>